<?xml version="1.0" standalone="no"?>
<!DOCTYPE svg PUBLIC "-//W3C//DTD SVG 20010904//EN"
 "http://www.w3.org/TR/2001/REC-SVG-20010904/DTD/svg10.dtd">
<svg version="1.0" xmlns="http://www.w3.org/2000/svg"
 width="256.000000pt" height="256.000000pt" viewBox="0 0 256.000000 256.000000"
 preserveAspectRatio="xMidYMid meet">
<metadata>
Created by potrace 1.14, written by Peter Selinger 2001-2017
</metadata>
<g transform="translate(0.000000,256.000000) scale(0.100000,-0.100000)"
fill="#000000" stroke="none">
<path d="M515 2471 c-47 -21 -69 -59 -73 -126 l-4 -65 -126 0 c-138 0 -177 -9
-207 -49 -19 -25 -20 -44 -23 -353 -3 -318 -2 -328 18 -348 27 -27 27 -81 0
-98 -20 -12 -20 -20 -18 -647 l3 -635 33 -32 32 -33 1128 0 c1112 0 1127 0
1153 20 38 29 49 68 49 178 0 86 -2 98 -20 109 -28 18 -28 78 0 96 20 12 20
19 18 867 l-3 855 -33 32 -32 33 -144 3 -144 3 -4 65 c-3 57 -8 69 -36 97 -28
27 -39 32 -82 32 -43 0 -54 -5 -82 -32 -28 -29 -33 -40 -36 -98 l-4 -65 -118
0 -118 0 -4 65 c-3 58 -8 69 -36 98 -28 27 -39 32 -82 32 -43 0 -54 -5 -82
-32 -28 -29 -33 -40 -36 -98 l-4 -65 -118 0 -118 0 -4 65 c-3 58 -8 69 -36 98
-28 27 -39 32 -82 32 -43 0 -54 -5 -82 -32 -28 -29 -33 -40 -36 -98 l-4 -65
-118 0 -118 0 -4 65 c-3 57 -8 70 -34 96 -33 33 -92 46 -129 30z"/>
</g>
</svg>
